<svg xmlns="http://www.w3.org/2000/svg" viewBox="0 0 1000 300" role="img" aria-labelledby="t d"><title id="t">Luochen's work map</title><desc id="d">Agent workflows, real products, and public thinking connected by one delivery loop.</desc><defs><linearGradient id="g" x1="0" x2="1"><stop stop-color="#ff9958"/><stop offset="1" stop-color="#60d9c5"/></linearGradient></defs><rect width="1000" height="300" rx="22" fill="#101820"/><path d="M220 150h560" stroke="#fff" stroke-opacity=".16" stroke-dasharray="5 10"/><g font-family="-apple-system,BlinkMacSystemFont,Segoe UI,sans-serif"><g transform="translate(55 65)"><rect width="240" height="170" rx="15" fill="#17232b" stroke="#ff9958" stroke-opacity=".55"/><text x="25" y="37" fill="#ff9958" font-size="12" letter-spacing="2">01 / AGENTS</text><text x="25" y="88" fill="#f8f3ea" font-size="23">Make tools act</text><text x="25" y="120" fill="#9caab0" font-size="13">harness · safety · eval</text><circle cx="205" cy="135" r="16" fill="none" stroke="#ff9958" stroke-width="2"/><path d="M196 135h18M205 126v18" stroke="#ff9958"/></g><g transform="translate(380 65)"><rect width="240" height="170" rx="15" fill="#17232b" stroke="#f8f3ea" stroke-opacity=".35"/><text x="25" y="37" fill="#62d8c8" font-size="12" letter-spacing="2">02 / PRODUCTS</text><text x="25" y="88" fill="#f8f3ea" font-size="23">Make work move</text><text x="25" y="120" fill="#9caab0" font-size="13">roles · data · release</text><path d="M190 143l18-18 18 18" fill="none" stroke="#62d8c8" stroke-width="2"/></g><g transform="translate(705 65)"><rect width="240" height="170" rx="15" fill="#17232b" stroke="#62d8c8" stroke-opacity=".55"/><text x="25" y="37" fill="#62d8c8" font-size="12" letter-spacing="2">03 / WRITING</text><text x="25" y="88" fill="#f8f3ea" font-size="23">Make sense travel</text><text x="25" y="120" fill="#9caab0" font-size="13">notes · courses · clarity</text><path d="M194 126h40M194 138h28M194 150h36" stroke="#62d8c8" stroke-width="3"/></g></g></svg>
